<svg>

    <symbol viewBox="5 5 22 22" width="40px" height = "40px" xmlns="http://www.w3.org/2000/svg" id="linkedin">
        <path d="M 7.5 5 C 6.132813 5 5 6.132813 5 7.5 L 5 24.5 C 5 25.867188 6.132813 27 7.5 27 L 24.5 27 C 25.867188 27 27 25.867188 27 24.5 L 27 7.5 C 27 6.132813 25.867188 5 24.5 5 Z M 7.5 7 L 24.5 7 C 24.785156 7 25 7.214844 25 7.5 L 25 24.5 C 25 24.785156 24.785156 25 24.5 25 L 7.5 25 C 7.214844 25 7 24.785156 7 24.5 L 7 7.5 C 7 7.214844 7.214844 7 7.5 7 Z M 10.4375 8.71875 C 9.488281 8.71875 8.71875 9.488281 8.71875 10.4375 C 8.71875 11.386719 9.488281 12.15625 10.4375 12.15625 C 11.386719 12.15625 12.15625 11.386719 12.15625 10.4375 C 12.15625 9.488281 11.386719 8.71875 10.4375 8.71875 Z M 19.46875 13.28125 C 18.035156 13.28125 17.082031 14.066406 16.6875 14.8125 L 16.625 14.8125 L 16.625 13.5 L 13.8125 13.5 L 13.8125 23 L 16.75 23 L 16.75 18.3125 C 16.75 17.074219 16.996094 15.875 18.53125 15.875 C 20.042969 15.875 20.0625 17.273438 20.0625 18.375 L 20.0625 23 L 23 23 L 23 17.78125 C 23 15.226563 22.457031 13.28125 19.46875 13.28125 Z M 9 13.5 L 9 23 L 11.96875 23 L 11.96875 13.5 Z"/>
    </symbol>

    <symbol xmlns="http://www.w3.org/2000/svg"  viewBox="3 3 44 44" width="40px" height = "40px" id="instagram">
        <path d="M 16 3 C 8.8324839 3 3 8.8324839 3 16 L 3 34 C 3 41.167516 8.8324839 47 16 47 L 34 47 C 41.167516 47 47 41.167516 47 34 L 47 16 C 47 8.8324839 41.167516 3 34 3 L 16 3 z M 16 5 L 34 5 C 40.086484 5 45 9.9135161 45 16 L 45 34 C 45 40.086484 40.086484 45 34 45 L 16 45 C 9.9135161 45 5 40.086484 5 34 L 5 16 C 5 9.9135161 9.9135161 5 16 5 z M 37 11 A 2 2 0 0 0 35 13 A 2 2 0 0 0 37 15 A 2 2 0 0 0 39 13 A 2 2 0 0 0 37 11 z M 25 14 C 18.936712 14 14 18.936712 14 25 C 14 31.063288 18.936712 36 25 36 C 31.063288 36 36 31.063288 36 25 C 36 18.936712 31.063288 14 25 14 z M 25 16 C 29.982407 16 34 20.017593 34 25 C 34 29.982407 29.982407 34 25 34 C 20.017593 34 16 29.982407 16 25 C 16 20.017593 20.017593 16 25 16 z"/>
    </symbol>

    <symbol xmlns="http://www.w3.org/2000/svg"  viewBox="12 12 40 40" width="40px" height = "40px"  id="behance">
       <path d="M43.462,52H20.538c-2.28,0-4.424-0.888-6.037-2.5C12.889,47.887,12,45.743,12,43.461V20.539 c0-2.281,0.889-4.426,2.501-6.038c1.613-1.612,3.757-2.5,6.037-2.5h22.924c2.28,0,4.424,0.888,6.037,2.5 C51.111,16.113,52,18.257,52,20.539v22.923c0,2.281-0.889,4.426-2.501,6.038C47.886,51.112,45.742,52,43.462,52z M20.538,16 c-1.212,0-2.352,0.472-3.209,1.33C16.472,18.186,16,19.326,16,20.539v22.923c0,1.213,0.472,2.353,1.329,3.209 c0.857,0.857,1.997,1.33,3.209,1.33h22.924c1.212,0,2.352-0.472,3.209-1.33C47.528,45.814,48,44.674,48,43.461V20.539 c0-1.213-0.472-2.353-1.329-3.209C45.813,16.472,44.674,16,43.462,16H20.538z"/><path d="M43.487,24.999h-6c-0.553,0-1-0.448-1-1s0.447-1,1-1h6c0.553,0,1,0.448,1,1S44.04,24.999,43.487,24.999z"/><path fill-rule="evenodd" d="M28.793,31.345c0.951,0.326,2.695,1.252,2.695,4.081	c0,4.384-4.756,4.573-5.39,4.574h-7.61V23.999h7.293c0.792,0,4.707-0.134,4.707,4C30.488,30.197,29.426,31.019,28.793,31.345z M22.488,26.999v3h2.619c0.357,0,1.547-0.226,1.547-1.565c0-1.34-1.548-1.435-1.785-1.435H22.488z M25.418,36.981	c0.254,0,2.037-0.098,2.037-1.916c0-1.82-1.401-2.065-2.037-2.065h-2.93v3.981H25.418z" clip-rule="evenodd"/><path fill-rule="evenodd" d="M43.141,36h3.182c-0.563,1.868-2.591,3.999-5.667,3.999	c-2.028,0-6.169-1.127-6.169-6.5c0-5.807,4.479-6.5,6-6.5c5.375,0,6.125,4.5,6,8c0,0,0,0.001,0,0.001h-2.68c0,0,0-0.001,0-0.001	h-5.321c0,0,0.512,1.982,2.512,1.982C41.99,36.981,42.688,36.493,43.141,36z M40.573,29.6c-1.326-0.023-2.823,1.15-2.788,2.4h5.408	c-0.085-0.775-0.338-1.394-0.761-1.781C42.01,29.832,41.498,29.616,40.573,29.6z"/>
    </symbol>

    <symbol xmlns="http://www.w3.org/2000/svg"  viewBox="6 6 52 52" width="40px" height = "40px"  id="dribble">
       <path d="M32,6C17.641,6,6,17.641,6,32c0,14.359,11.641,26,26,26c14.359,0,26-11.641,26-26C58,17.641,46.359,6,32,6z M49.488,18.673 c2.739,3.586,4.399,8.035,4.5,12.862c-4.48-0.847-9.661-1.261-15.157-0.152c-0.656-1.523-1.345-3.041-2.086-4.547 C43.212,24.131,47.332,20.779,49.488,18.673z M46.766,15.706c-1.871,1.808-5.719,4.956-11.907,7.499 c-2.369-4.366-5.073-8.602-8.059-12.578C28.468,10.22,30.208,10,32,10C37.677,10,42.859,12.162,46.766,15.706z M22.824,12.013 c3.056,3.954,5.819,8.188,8.23,12.563c-5.393,1.703-12.17,2.839-20.502,2.548C12.079,20.4,16.694,14.839,22.824,12.013z M10,32 c0-0.3,0.011-0.599,0.023-0.896c1.112,0.046,2.208,0.076,3.271,0.076c7.911,0,14.417-1.22,19.684-2.948 c0.691,1.389,1.337,2.789,1.953,4.193c-6.267,2.099-12.812,6.412-19.101,14.473C12.214,42.976,10,37.743,10,32z M18.803,49.59 c5.859-7.593,11.865-11.596,17.655-13.475c2.097,5.409,3.593,10.831,4.384,16.024C38.134,53.332,35.144,54,32,54 C27.052,54,22.482,52.357,18.803,49.59z M44.564,50.044c-0.854-4.859-2.281-9.884-4.195-14.897c4.723-0.823,9.239-0.41,13.34,0.407 C52.733,41.535,49.338,46.71,44.564,50.044z"/>
    </symbol>

    <symbol width="22" height="21" viewBox="0 0 22 21" xmlns="http://www.w3.org/2000/svg" id="star">
        <path d="M10.0853 1.18966C10.3851 0.269381 11.687 0.269382 11.9869 1.18966L13.738 6.56406C13.8721 6.97568 14.2559 7.25426 14.6888 7.25426H20.3495C21.3189 7.25426 21.7213 8.49529 20.9363 9.06405L16.3614 12.3787C16.0099 12.6333 15.8628 13.0856 15.9973 13.4983L17.7459 18.8649C18.0459 19.7858 16.9926 20.5527 16.2084 19.9845L11.6228 16.6621C11.2728 16.4085 10.7994 16.4085 10.4494 16.6621L5.86382 19.9845C5.07956 20.5527 4.02627 19.7858 4.3263 18.8649L6.07487 13.4983C6.20932 13.0856 6.06224 12.6333 5.71078 12.3787L1.13591 9.06405C0.350902 8.49529 0.753233 7.25426 1.72263 7.25426H7.38338C7.81631 7.25426 8.20007 6.97568 8.33419 6.56406L10.0853 1.18966Z"/>
    </symbol>

    <symbol width="23" height="23" viewBox="0 0 23 23" fill="#828282" xmlns="http://www.w3.org/2000/svg" id="close">
    <rect x="2.68701" width="27.3715" height="3.8" transform="rotate(45 2.68701 0)" fill="#828282"/>
    <rect x="0.831299" y="19.5566" width="27.3715" height="3.8" transform="rotate(-45 0.831299 19.5566)" fill="#828282"/>
    </symbol>
</svg>